<?xml version="1.0" encoding="UTF-8"?>
<svg width="40px" height="34px" viewBox="0 0 40 34" version="1.1" xmlns="http://www.w3.org/2000/svg" xmlns:xlink="http://www.w3.org/1999/xlink">
    <!-- Generator: Sketch 58 (84663) - https://sketch.com -->
    <title>noun_chart_1217543</title>
    <desc>Created with Sketch.</desc>
    <g id="Page-1" stroke="none" stroke-width="1" fill="none" fill-rule="evenodd">
        <g id="Desktop-HD" transform="translate(-783.000000, -1546.000000)" fill="#000000" fill-rule="nonzero">
            <g id="noun_chart_1217543" transform="translate(783.000000, 1546.000000)">
                <g id="Group" transform="translate(0.000000, 0.311132)">
                    <path d="M37.0731712,0.176678049 C35.4682932,0.176678049 34.146342,1.49860488 34.146342,3.10350732 C34.146342,3.73983415 34.3595127,4.32821951 34.7103907,4.81082439 L28.0640493,13.9419366 C27.8242932,13.8774976 27.5759029,13.8352049 27.3170737,13.8352049 C26.0582444,13.8352049 24.9824395,14.6612049 24.5731712,15.786439 L15.4268298,15.786439 C15.0175615,14.6612049 13.9417566,13.8352049 12.6829273,13.8352049 C11.0780493,13.8352049 9.75609805,15.1571561 9.75609805,16.7620488 C9.75609805,17.3983902 9.96926878,17.9867805 10.3201468,18.4693659 L3.67380537,27.600439 C3.43404927,27.5360488 3.18565902,27.4937561 2.92682976,27.4937561 C1.32195171,27.4937561 4.87804878e-07,28.8157073 4.87804878e-07,30.4205854 C4.87804878e-07,32.0254634 1.32195171,33.3474146 2.92682976,33.3474146 C4.5317078,33.3474146 5.85365902,32.0254634 5.85365902,30.4205854 C5.85365902,29.7826829 5.64209805,29.1965366 5.28965902,28.7132683 L11.9207322,19.5821951 C12.1651712,19.6493171 12.4184395,19.688878 12.6829273,19.688878 C13.9484395,19.688878 15.0378541,18.8721951 15.442098,17.7376585 L24.5579517,17.7376585 C24.9621468,18.8721951 26.0515615,19.688878 27.3170737,19.688878 C28.9219517,19.688878 30.2439029,18.3669268 30.2439029,16.7620488 C30.2439029,16.1241463 30.032342,15.5379854 29.6799029,15.0547171 L36.3109761,5.92362927 C36.5554151,5.99077561 36.8086834,6.03033659 37.0731712,6.03033659 C38.6780483,6.03033659 40.0000005,4.70838537 40.0000005,3.10350732 C40.0000005,1.49860488 38.6780483,0.176678049 37.0731712,0.176678049 L37.0731712,0.176678049 Z" id="Path"></path>
                </g>
            </g>
        </g>
    </g>
</svg>